<svg xmlns="http://www.w3.org/2000/svg" xmlns:xlink="http://www.w3.org/1999/xlink" width="194" zoomAndPan="magnify" viewBox="0 0 145.5 34.499999" height="46" preserveAspectRatio="xMidYMid meet" version="1.0"><defs><g/><clipPath id="04f143fe90"><path d="M 0.792969 19 L 4 19 L 4 22 L 0.792969 22 Z M 0.792969 19 " clip-rule="nonzero"/></clipPath><clipPath id="cf7830438e"><path d="M 22 18 L 25.1875 18 L 25.1875 22 L 22 22 Z M 22 18 " clip-rule="nonzero"/></clipPath></defs><path fill="#76bedd" d="M 12.871094 12.398438 C 12.742188 12.398438 12.625 12.296875 12.625 12.15625 L 12.625 8.925781 C 12.625 8.796875 12.742188 8.683594 12.871094 8.683594 C 13 8.683594 13.097656 8.796875 13.097656 8.925781 L 13.097656 12.15625 C 13.097656 12.296875 13 12.398438 12.871094 12.398438 Z M 12.871094 12.398438 " fill-opacity="1" fill-rule="evenodd"/><path fill="#76bedd" d="M 14.269531 12.683594 C 14.242188 12.683594 14.199219 12.667969 14.171875 12.65625 C 14.054688 12.613281 14 12.46875 14.042969 12.339844 L 16.628906 6.136719 C 16.671875 6.007812 16.8125 5.953125 16.929688 6.007812 C 17.058594 6.050781 17.113281 6.195312 17.058594 6.308594 L 14.484375 12.527344 C 14.441406 12.625 14.355469 12.683594 14.269531 12.683594 Z M 14.269531 12.683594 " fill-opacity="1" fill-rule="evenodd"/><path fill="#76bedd" d="M 22.574219 19.730469 C 22.546875 19.730469 22.515625 19.714844 22.488281 19.714844 L 16.199219 17.328125 C 16.070312 17.285156 16.015625 17.144531 16.058594 17.027344 C 16.097656 16.898438 16.242188 16.84375 16.371094 16.886719 L 22.660156 19.273438 C 22.789062 19.316406 22.84375 19.445312 22.800781 19.574219 C 22.757812 19.671875 22.675781 19.730469 22.574219 19.730469 Z M 22.574219 19.730469 " fill-opacity="1" fill-rule="evenodd"/><path fill="#76bedd" d="M 3.378906 20.257812 C 3.28125 20.257812 3.195312 20.203125 3.164062 20.117188 C 3.109375 20 3.164062 19.859375 3.28125 19.800781 L 9.425781 17.070312 C 9.554688 17.027344 9.695312 17.070312 9.738281 17.199219 C 9.796875 17.316406 9.738281 17.457031 9.625 17.515625 L 3.480469 20.246094 C 3.4375 20.246094 3.410156 20.257812 3.378906 20.257812 Z M 3.378906 20.257812 " fill-opacity="1" fill-rule="evenodd"/><path fill="#76bedd" d="M 15.457031 13.46875 C 15.386719 13.46875 15.328125 13.441406 15.285156 13.398438 C 15.183594 13.296875 15.183594 13.15625 15.285156 13.054688 L 17.570312 10.769531 C 17.65625 10.683594 17.816406 10.683594 17.898438 10.769531 C 18 10.867188 18 11.011719 17.898438 11.113281 L 15.613281 13.398438 C 15.570312 13.441406 15.511719 13.46875 15.457031 13.46875 Z M 15.457031 13.46875 " fill-opacity="1" fill-rule="evenodd"/><path fill="#76bedd" d="M 19.757812 16.058594 L 16.515625 16.058594 C 16.386719 16.058594 16.285156 15.941406 16.285156 15.8125 C 16.285156 15.683594 16.386719 15.570312 16.515625 15.570312 L 19.757812 15.570312 C 19.886719 15.570312 20 15.683594 20 15.8125 C 20 15.941406 19.886719 16.058594 19.757812 16.058594 Z M 19.757812 16.058594 " fill-opacity="1" fill-rule="evenodd"/><path fill="#76bedd" d="M 17.742188 20.917969 C 17.671875 20.917969 17.613281 20.902344 17.570312 20.859375 L 15.285156 18.558594 C 15.183594 18.472656 15.183594 18.316406 15.285156 18.230469 C 15.371094 18.128906 15.527344 18.128906 15.613281 18.230469 L 17.898438 20.515625 C 18 20.617188 18 20.757812 17.898438 20.859375 C 17.859375 20.902344 17.800781 20.917969 17.742188 20.917969 Z M 17.742188 20.917969 " fill-opacity="1" fill-rule="evenodd"/><path fill="#76bedd" d="M 12.871094 22.945312 C 12.742188 22.945312 12.625 22.832031 12.625 22.703125 L 12.625 19.472656 C 12.625 19.328125 12.742188 19.230469 12.871094 19.230469 C 13 19.230469 13.097656 19.328125 13.097656 19.472656 L 13.097656 22.703125 C 13.097656 22.832031 13 22.945312 12.871094 22.945312 Z M 12.871094 22.945312 " fill-opacity="1" fill-rule="evenodd"/><path fill="#76bedd" d="M 7.996094 20.917969 C 7.9375 20.917969 7.867188 20.902344 7.824219 20.859375 C 7.738281 20.757812 7.738281 20.617188 7.824219 20.515625 L 10.109375 18.230469 C 10.210938 18.128906 10.355469 18.128906 10.453125 18.230469 C 10.539062 18.316406 10.539062 18.472656 10.453125 18.558594 L 8.167969 20.859375 C 8.109375 20.902344 8.054688 20.917969 7.996094 20.917969 Z M 7.996094 20.917969 " fill-opacity="1" fill-rule="evenodd"/><path fill="#76bedd" d="M 9.210938 16.058594 L 5.980469 16.058594 C 5.851562 16.058594 5.738281 15.941406 5.738281 15.8125 C 5.738281 15.683594 5.851562 15.570312 5.980469 15.570312 L 9.210938 15.570312 C 9.339844 15.570312 9.453125 15.683594 9.453125 15.8125 C 9.453125 15.941406 9.339844 16.058594 9.210938 16.058594 Z M 9.210938 16.058594 " fill-opacity="1" fill-rule="evenodd"/><path fill="#76bedd" d="M 10.28125 13.46875 C 10.226562 13.46875 10.167969 13.441406 10.109375 13.398438 L 7.824219 11.113281 C 7.738281 11.011719 7.738281 10.867188 7.824219 10.769531 C 7.925781 10.683594 8.066406 10.683594 8.167969 10.769531 L 10.453125 13.054688 C 10.539062 13.15625 10.539062 13.296875 10.453125 13.398438 C 10.410156 13.441406 10.339844 13.46875 10.28125 13.46875 Z M 10.28125 13.46875 " fill-opacity="1" fill-rule="evenodd"/><g clip-path="url(#04f143fe90)"><path fill="#74ba29" d="M 2.25 21.972656 C 1.449219 21.972656 0.792969 21.316406 0.792969 20.515625 C 0.792969 19.714844 1.449219 19.058594 2.25 19.058594 C 3.066406 19.058594 3.722656 19.714844 3.722656 20.515625 C 3.722656 21.316406 3.066406 21.972656 2.25 21.972656 Z M 2.25 21.972656 " fill-opacity="1" fill-rule="evenodd"/></g><g clip-path="url(#cf7830438e)"><path fill="#74ba29" d="M 23.71875 21.386719 C 22.917969 21.386719 22.257812 20.730469 22.257812 19.914062 C 22.257812 19.117188 22.917969 18.457031 23.71875 18.457031 C 24.53125 18.457031 25.1875 19.117188 25.1875 19.914062 C 25.1875 20.730469 24.53125 21.386719 23.71875 21.386719 Z M 23.71875 21.386719 " fill-opacity="1" fill-rule="evenodd"/></g><path fill="#74ba29" d="M 17.3125 6.554688 C 16.5 6.554688 15.855469 5.894531 15.855469 5.09375 C 15.855469 4.28125 16.5 3.621094 17.3125 3.621094 C 18.113281 3.621094 18.773438 4.28125 18.773438 5.09375 C 18.773438 5.894531 18.113281 6.554688 17.3125 6.554688 Z M 17.3125 6.554688 " fill-opacity="1" fill-rule="evenodd"/><path fill="#199aff" d="M 12.871094 9.167969 C 12.183594 9.167969 11.640625 8.609375 11.640625 7.9375 C 11.640625 7.253906 12.183594 6.710938 12.871094 6.710938 C 13.542969 6.710938 14.097656 7.253906 14.097656 7.9375 C 14.097656 8.609375 13.542969 9.167969 12.871094 9.167969 Z M 12.871094 9.167969 " fill-opacity="1" fill-rule="evenodd"/><path fill="#199aff" d="M 18.445312 11.46875 C 18.113281 11.46875 17.800781 11.339844 17.570312 11.113281 C 17.34375 10.882812 17.214844 10.570312 17.214844 10.238281 C 17.214844 9.910156 17.34375 9.609375 17.570312 9.367188 C 17.800781 9.140625 18.113281 9.011719 18.445312 9.011719 C 18.773438 9.011719 19.074219 9.140625 19.300781 9.367188 C 19.542969 9.609375 19.671875 9.910156 19.671875 10.238281 C 19.671875 10.570312 19.542969 10.882812 19.300781 11.113281 C 19.074219 11.339844 18.773438 11.46875 18.445312 11.46875 Z M 18.445312 11.46875 " fill-opacity="1" fill-rule="evenodd"/><path fill="#199aff" d="M 20.746094 17.042969 C 20.074219 17.042969 19.515625 16.484375 19.515625 15.8125 C 19.515625 15.140625 20.074219 14.585938 20.746094 14.585938 C 21.429688 14.585938 21.972656 15.140625 21.972656 15.8125 C 21.972656 16.484375 21.429688 17.042969 20.746094 17.042969 Z M 20.746094 17.042969 " fill-opacity="1" fill-rule="evenodd"/><path fill="#199aff" d="M 18.445312 22.617188 C 18.113281 22.617188 17.800781 22.488281 17.570312 22.257812 C 17.085938 21.773438 17.085938 20.988281 17.570312 20.515625 C 17.800781 20.289062 18.113281 20.160156 18.445312 20.160156 C 18.773438 20.160156 19.074219 20.289062 19.300781 20.515625 C 19.785156 20.988281 19.785156 21.773438 19.300781 22.257812 C 19.074219 22.488281 18.773438 22.617188 18.445312 22.617188 Z M 18.445312 22.617188 " fill-opacity="1" fill-rule="evenodd"/><path fill="#199aff" d="M 12.871094 24.917969 C 12.183594 24.917969 11.640625 24.375 11.640625 23.6875 C 11.640625 23.015625 12.183594 22.460938 12.871094 22.460938 C 13.542969 22.460938 14.097656 23.015625 14.097656 23.6875 C 14.097656 24.375 13.542969 24.917969 12.871094 24.917969 Z M 12.871094 24.917969 " fill-opacity="1" fill-rule="evenodd"/><path fill="#199aff" d="M 7.296875 22.617188 C 6.96875 22.617188 6.652344 22.488281 6.425781 22.257812 C 5.953125 21.773438 5.953125 21.003906 6.425781 20.515625 C 6.652344 20.289062 6.96875 20.160156 7.296875 20.160156 C 7.625 20.160156 7.925781 20.289062 8.167969 20.515625 C 8.640625 21.003906 8.640625 21.773438 8.167969 22.257812 C 7.925781 22.488281 7.625 22.617188 7.296875 22.617188 Z M 7.296875 22.617188 " fill-opacity="1" fill-rule="evenodd"/><path fill="#199aff" d="M 4.980469 17.042969 C 4.308594 17.042969 3.765625 16.484375 3.765625 15.8125 C 3.765625 15.140625 4.308594 14.585938 4.980469 14.585938 C 5.667969 14.585938 6.210938 15.140625 6.210938 15.8125 C 6.210938 16.484375 5.667969 17.042969 4.980469 17.042969 Z M 4.980469 17.042969 " fill-opacity="1" fill-rule="evenodd"/><path fill="#199aff" d="M 7.296875 11.46875 C 6.96875 11.46875 6.652344 11.339844 6.425781 11.113281 C 5.953125 10.625 5.953125 9.855469 6.425781 9.367188 C 6.652344 9.140625 6.96875 9.011719 7.296875 9.011719 C 7.625 9.011719 7.925781 9.140625 8.167969 9.367188 C 8.640625 9.855469 8.640625 10.625 8.167969 11.113281 C 7.925781 11.339844 7.625 11.46875 7.296875 11.46875 Z M 7.296875 11.46875 " fill-opacity="1" fill-rule="evenodd"/><path fill="#0068c0" d="M 12.871094 19.703125 C 10.726562 19.703125 8.980469 17.957031 8.980469 15.8125 C 8.980469 13.671875 10.726562 11.925781 12.871094 11.925781 C 15.011719 11.925781 16.757812 13.671875 16.757812 15.8125 C 16.757812 17.957031 15.011719 19.703125 12.871094 19.703125 Z M 12.871094 19.703125 " fill-opacity="1" fill-rule="evenodd"/><path fill="#004d8c" d="M 12.871094 17.472656 C 11.953125 17.472656 11.199219 16.730469 11.199219 15.8125 C 11.199219 14.898438 11.953125 14.15625 12.871094 14.15625 C 13.785156 14.15625 14.527344 14.898438 14.527344 15.8125 C 14.527344 16.730469 13.785156 17.472656 12.871094 17.472656 Z M 12.871094 17.472656 " fill-opacity="1" fill-rule="evenodd"/><g fill="#000000" fill-opacity="1"><g transform="translate(28.891757, 21.366479)"><g><path d="M 2.53125 -6.75 L 2.53125 0 L 0.859375 0 L 0.859375 -15.015625 L 2.53125 -15.015625 L 2.53125 -8.265625 L 6.21875 -8.265625 L 6.21875 -15.015625 L 7.890625 -15.015625 L 7.890625 0 L 6.21875 0 L 6.21875 -6.75 Z M 2.53125 -6.75 "/></g></g></g><g fill="#000000" fill-opacity="1"><g transform="translate(37.016932, 21.366479)"><g><path d="M 6.203125 -8.359375 L 6.203125 -6.859375 L 2.53125 -6.859375 L 2.53125 -1.515625 L 7.03125 -1.515625 L 7.03125 0 L 0.859375 0 L 0.859375 -15.015625 L 7.03125 -15.015625 L 7.03125 -13.5 L 2.53125 -13.5 L 2.53125 -8.359375 Z M 6.203125 -8.359375 "/></g></g></g><g fill="#000000" fill-opacity="1"><g transform="translate(44.113022, 21.366479)"><g><path d="M 4.375 -15.015625 C 5.550781 -15.015625 6.410156 -14.679688 6.953125 -14.015625 C 7.503906 -13.347656 7.78125 -12.4375 7.78125 -11.28125 L 7.78125 -3.71875 C 7.78125 -2.550781 7.503906 -1.640625 6.953125 -0.984375 C 6.410156 -0.328125 5.550781 0 4.375 0 L 0.859375 0 L 0.859375 -15.015625 Z M 4.359375 -1.515625 C 4.953125 -1.515625 5.394531 -1.695312 5.6875 -2.0625 C 5.988281 -2.4375 6.140625 -2.960938 6.140625 -3.640625 L 6.140625 -11.375 C 6.140625 -12.0625 5.988281 -12.585938 5.6875 -12.953125 C 5.394531 -13.316406 4.941406 -13.5 4.328125 -13.5 L 2.53125 -13.5 L 2.53125 -1.515625 Z M 4.359375 -1.515625 "/></g></g></g><g fill="#000000" fill-opacity="1"><g transform="translate(51.980931, 21.366479)"><g><path d="M 4.09375 -15.171875 C 5.25 -15.171875 6.101562 -14.828125 6.65625 -14.140625 C 7.207031 -13.453125 7.484375 -12.535156 7.484375 -11.390625 L 7.484375 -10.109375 L 5.90625 -10.109375 L 5.90625 -11.484375 C 5.90625 -12.160156 5.765625 -12.6875 5.484375 -13.0625 C 5.203125 -13.445312 4.753906 -13.640625 4.140625 -13.640625 C 3.535156 -13.640625 3.085938 -13.445312 2.796875 -13.0625 C 2.515625 -12.6875 2.375 -12.160156 2.375 -11.484375 L 2.375 -3.546875 C 2.375 -2.859375 2.515625 -2.320312 2.796875 -1.9375 C 3.085938 -1.5625 3.535156 -1.375 4.140625 -1.375 C 4.753906 -1.375 5.203125 -1.5625 5.484375 -1.9375 C 5.765625 -2.320312 5.90625 -2.859375 5.90625 -3.546875 L 5.90625 -6.546875 L 4.359375 -6.546875 L 4.359375 -8.046875 L 7.484375 -8.046875 L 7.484375 -3.625 C 7.484375 -2.476562 7.207031 -1.5625 6.65625 -0.875 C 6.101562 -0.1875 5.25 0.15625 4.09375 0.15625 C 2.945312 0.15625 2.097656 -0.1875 1.546875 -0.875 C 1.003906 -1.5625 0.734375 -2.476562 0.734375 -3.625 L 0.734375 -11.390625 C 0.734375 -11.960938 0.800781 -12.476562 0.9375 -12.9375 C 1.070312 -13.40625 1.273438 -13.800781 1.546875 -14.125 C 1.828125 -14.457031 2.175781 -14.710938 2.59375 -14.890625 C 3.019531 -15.078125 3.519531 -15.171875 4.09375 -15.171875 Z M 4.09375 -15.171875 "/></g></g></g><g fill="#000000" fill-opacity="1"><g transform="translate(59.570118, 21.366479)"><g><path d="M 6.203125 -8.359375 L 6.203125 -6.859375 L 2.53125 -6.859375 L 2.53125 -1.515625 L 7.03125 -1.515625 L 7.03125 0 L 0.859375 0 L 0.859375 -15.015625 L 7.03125 -15.015625 L 7.03125 -13.5 L 2.53125 -13.5 L 2.53125 -8.359375 Z M 6.203125 -8.359375 "/></g></g></g><g fill="#000000" fill-opacity="1"><g transform="translate(66.666208, 21.366479)"><g><path d="M 2.34375 0 L 0.84375 0 L 0.84375 -15.015625 L 2.953125 -15.015625 L 6.4375 -4.15625 L 6.4375 -15.015625 L 7.921875 -15.015625 L 7.921875 0 L 6.171875 0 L 2.34375 -12.140625 Z M 2.34375 0 "/></g></g></g><g fill="#000000" fill-opacity="1"><g transform="translate(74.812826, 21.366479)"><g><path d="M 6.203125 -8.359375 L 6.203125 -6.859375 L 2.53125 -6.859375 L 2.53125 -1.515625 L 7.03125 -1.515625 L 7.03125 0 L 0.859375 0 L 0.859375 -15.015625 L 7.03125 -15.015625 L 7.03125 -13.5 L 2.53125 -13.5 L 2.53125 -8.359375 Z M 6.203125 -8.359375 "/></g></g></g><g fill="#000000" fill-opacity="1"><g transform="translate(81.908915, 21.366479)"><g><path d="M 4.59375 -6.484375 L 2.078125 0 L 0.5 0 L 3.515625 -7.75 L 0.6875 -15.015625 L 2.421875 -15.015625 L 4.734375 -9.015625 L 7.078125 -15.015625 L 8.640625 -15.015625 L 5.828125 -7.75 L 8.84375 0 L 7.078125 0 Z M 4.59375 -6.484375 "/></g></g></g><g fill="#000000" fill-opacity="1"><g transform="translate(90.612956, 21.366479)"><g><path d="M 2.453125 -3.546875 C 2.453125 -2.859375 2.585938 -2.320312 2.859375 -1.9375 C 3.140625 -1.5625 3.585938 -1.375 4.203125 -1.375 C 4.804688 -1.375 5.242188 -1.5625 5.515625 -1.9375 C 5.796875 -2.320312 5.9375 -2.859375 5.9375 -3.546875 L 5.9375 -15.015625 L 7.515625 -15.015625 L 7.515625 -3.625 C 7.515625 -2.476562 7.238281 -1.554688 6.6875 -0.859375 C 6.144531 -0.171875 5.296875 0.171875 4.140625 0.171875 C 2.992188 0.171875 2.148438 -0.171875 1.609375 -0.859375 C 1.066406 -1.554688 0.796875 -2.476562 0.796875 -3.625 L 0.796875 -15.015625 L 2.453125 -15.015625 Z M 2.453125 -3.546875 "/></g></g></g><g fill="#000000" fill-opacity="1"><g transform="translate(98.287912, 21.366479)"><g><path d="M 4.015625 -15.171875 C 5.160156 -15.171875 6.003906 -14.828125 6.546875 -14.140625 C 7.085938 -13.460938 7.359375 -12.550781 7.359375 -11.40625 L 7.359375 -11 L 5.765625 -11 L 5.765625 -11.5 C 5.765625 -12.1875 5.628906 -12.710938 5.359375 -13.078125 C 5.085938 -13.453125 4.648438 -13.640625 4.046875 -13.640625 C 3.453125 -13.640625 3.019531 -13.453125 2.75 -13.078125 C 2.476562 -12.710938 2.34375 -12.191406 2.34375 -11.515625 C 2.34375 -10.960938 2.46875 -10.476562 2.71875 -10.0625 C 2.96875 -9.644531 3.273438 -9.257812 3.640625 -8.90625 C 4.015625 -8.5625 4.421875 -8.21875 4.859375 -7.875 C 5.296875 -7.539062 5.695312 -7.171875 6.0625 -6.765625 C 6.4375 -6.367188 6.75 -5.914062 7 -5.40625 C 7.25 -4.90625 7.375 -4.304688 7.375 -3.609375 C 7.375 -2.460938 7.097656 -1.546875 6.546875 -0.859375 C 6.003906 -0.179688 5.148438 0.15625 3.984375 0.15625 C 2.828125 0.15625 1.976562 -0.179688 1.4375 -0.859375 C 0.894531 -1.546875 0.625 -2.460938 0.625 -3.609375 L 0.625 -4.46875 L 2.1875 -4.46875 L 2.1875 -3.515625 C 2.1875 -2.828125 2.328125 -2.296875 2.609375 -1.921875 C 2.898438 -1.554688 3.347656 -1.375 3.953125 -1.375 C 4.546875 -1.375 4.984375 -1.554688 5.265625 -1.921875 C 5.554688 -2.296875 5.703125 -2.828125 5.703125 -3.515625 C 5.703125 -4.078125 5.578125 -4.5625 5.328125 -4.96875 C 5.078125 -5.375 4.765625 -5.75 4.390625 -6.09375 C 4.023438 -6.445312 3.625 -6.789062 3.1875 -7.125 C 2.757812 -7.46875 2.359375 -7.835938 1.984375 -8.234375 C 1.617188 -8.640625 1.3125 -9.09375 1.0625 -9.59375 C 0.8125 -10.101562 0.6875 -10.707031 0.6875 -11.40625 C 0.6875 -12.570312 0.957031 -13.488281 1.5 -14.15625 C 2.039062 -14.832031 2.878906 -15.171875 4.015625 -15.171875 Z M 4.015625 -15.171875 "/></g></g></g><g fill="#000000" fill-opacity="1"><g transform="translate(105.64127, 21.366479)"><g><path d="M 4.140625 -15.015625 C 5.328125 -15.015625 6.1875 -14.6875 6.71875 -14.03125 C 7.25 -13.382812 7.515625 -12.488281 7.515625 -11.34375 L 7.515625 -9.546875 C 7.515625 -8.347656 7.226562 -7.441406 6.65625 -6.828125 C 6.09375 -6.222656 5.210938 -5.921875 4.015625 -5.921875 L 2.53125 -5.921875 L 2.53125 0 L 0.859375 0 L 0.859375 -15.015625 Z M 4.015625 -7.421875 C 4.640625 -7.421875 5.101562 -7.570312 5.40625 -7.875 C 5.707031 -8.1875 5.859375 -8.707031 5.859375 -9.4375 L 5.859375 -11.4375 C 5.859375 -12.125 5.722656 -12.640625 5.453125 -12.984375 C 5.191406 -13.328125 4.753906 -13.5 4.140625 -13.5 L 2.53125 -13.5 L 2.53125 -7.421875 Z M 4.015625 -7.421875 "/></g></g></g><g fill="#000000" fill-opacity="1"><g transform="translate(113.037516, 21.366479)"><g><path d="M 4.203125 -15.015625 C 5.390625 -15.015625 6.242188 -14.722656 6.765625 -14.140625 C 7.285156 -13.554688 7.546875 -12.703125 7.546875 -11.578125 L 7.546875 -10.359375 C 7.546875 -9.535156 7.394531 -8.863281 7.09375 -8.34375 C 6.800781 -7.832031 6.332031 -7.472656 5.6875 -7.265625 C 6.375 -7.066406 6.859375 -6.695312 7.140625 -6.15625 C 7.429688 -5.625 7.578125 -4.953125 7.578125 -4.140625 L 7.578125 -1.796875 C 7.578125 -1.472656 7.585938 -1.15625 7.609375 -0.84375 C 7.640625 -0.539062 7.726562 -0.257812 7.875 0 L 6.171875 0 C 6.078125 -0.21875 6.007812 -0.453125 5.96875 -0.703125 C 5.925781 -0.953125 5.90625 -1.328125 5.90625 -1.828125 L 5.90625 -4.1875 C 5.90625 -5.03125 5.710938 -5.613281 5.328125 -5.9375 C 4.953125 -6.257812 4.414062 -6.421875 3.71875 -6.421875 L 2.53125 -6.421875 L 2.53125 0 L 0.859375 0 L 0.859375 -15.015625 Z M 3.78125 -7.9375 C 4.445312 -7.9375 4.96875 -8.078125 5.34375 -8.359375 C 5.71875 -8.640625 5.90625 -9.1875 5.90625 -10 L 5.90625 -11.4375 C 5.90625 -12.125 5.769531 -12.640625 5.5 -12.984375 C 5.238281 -13.328125 4.789062 -13.5 4.15625 -13.5 L 2.53125 -13.5 L 2.53125 -7.9375 Z M 3.78125 -7.9375 "/></g></g></g><g fill="#000000" fill-opacity="1"><g transform="translate(120.862538, 21.366479)"><g><path d="M 0.734375 -11.390625 C 0.734375 -12.546875 1.015625 -13.460938 1.578125 -14.140625 C 2.140625 -14.828125 3 -15.171875 4.15625 -15.171875 C 5.320312 -15.171875 6.1875 -14.828125 6.75 -14.140625 C 7.320312 -13.460938 7.609375 -12.546875 7.609375 -11.390625 L 7.609375 -3.625 C 7.609375 -2.476562 7.320312 -1.5625 6.75 -0.875 C 6.1875 -0.1875 5.320312 0.15625 4.15625 0.15625 C 3 0.15625 2.140625 -0.1875 1.578125 -0.875 C 1.015625 -1.5625 0.734375 -2.476562 0.734375 -3.625 Z M 2.375 -3.546875 C 2.375 -2.859375 2.519531 -2.320312 2.8125 -1.9375 C 3.113281 -1.5625 3.5625 -1.375 4.15625 -1.375 C 4.769531 -1.375 5.21875 -1.5625 5.5 -1.9375 C 5.789062 -2.320312 5.9375 -2.859375 5.9375 -3.546875 L 5.9375 -11.484375 C 5.9375 -12.160156 5.789062 -12.6875 5.5 -13.0625 C 5.21875 -13.445312 4.769531 -13.640625 4.15625 -13.640625 C 3.5625 -13.640625 3.113281 -13.445312 2.8125 -13.0625 C 2.519531 -12.6875 2.375 -12.160156 2.375 -11.484375 Z M 2.375 -3.546875 "/></g></g></g></svg>